<svg xmlns="http://www.w3.org/2000/svg" fill-rule="evenodd" stroke-linejoin="round" stroke-miterlimit="2" clip-rule="evenodd" viewBox="0 0 32 32"><path d="M29,28l-22,0c-1.656,0 -3,-1.344 -3,-3c0,-1.656 1.344,-3 3,-3l22,0c0.552,0 1,-0.448 1,-1c0,-0.552 -0.448,-1 -1,-1l-22,0c-2.76,0 -5,2.24 -5,5c0,2.76 2.24,5 5,5l22,0c0.552,0 1,-0.448 1,-1c0,-0.552 -0.448,-1 -1,-1Zm0,-4l-22,0c-0.552,0 -1,0.448 -1,1c0,0.552 0.448,1 1,1l22,0c0.552,0 1,-0.448 1,-1c0,-0.552 -0.448,-1 -1,-1Zm-13.39,-18.731c-0.185,-0.025 -0.373,-0.038 -0.563,-0.038c-1.664,-0 -3.114,0.43 -4.029,1.513c-0.615,0.727 -1.018,1.768 -1.018,3.256c0,1.972 0.725,4.364 1.837,5.963c0.884,1.272 2.031,2.037 3.21,2.037c0.632,0 1.238,-0.145 1.8,-0.414c0.561,0.27 1.167,0.414 1.798,0.414c1.18,0 2.326,-0.765 3.211,-2.037c1.111,-1.599 1.836,-3.991 1.836,-5.963c0,-1.488 -0.402,-2.529 -1.017,-3.256c-0.915,-1.083 -2.365,-1.513 -4.03,-1.513c-0.355,-0 -0.702,0.045 -1.037,0.133c-0.009,-0.331 0.03,-0.702 0.271,-0.981c0.176,-0.204 0.46,-0.333 0.869,-0.394c0.546,-0.082 0.923,-0.591 0.841,-1.137c-0.082,-0.546 -0.591,-0.923 -1.137,-0.841c-1.004,0.15 -1.656,0.565 -2.088,1.066c-0.546,0.634 -0.742,1.445 -0.754,2.192Z"/></svg>