<svg xmlns="http://www.w3.org/2000/svg" id="Layer_1" x="0" y="0" version="1.1" viewBox="0 0 29 29" xml:space="preserve"><path d="M24 2H5C3.346 2 2 3.346 2 5v19c0 1.654 1.346 3 3 3h19c1.654 0 3-1.346 3-3V5c0-1.654-1.346-3-3-3zM5 4h19c.551 0 1 .449 1 1v1.184A2.966 2.966 0 0 0 24 6H5c-.352 0-.686.072-1 .184V5c0-.551.449-1 1-1zm20 6.184A2.966 2.966 0 0 0 24 10H5c-.352 0-.686.072-1 .184V9c0-.551.449-1 1-1h19c.551 0 1 .449 1 1v1.184zm0 4A2.966 2.966 0 0 0 24 14h-4c-1.654 0-3 1.346-3 3 0 .551-.449 1-1 1h-3c-.551 0-1-.449-1-1 0-1.654-1.346-3-3-3H5c-.352 0-.686.072-1 .184V13c0-.551.449-1 1-1h19c.551 0 1 .449 1 1v1.184z"/></svg>