<?xml version="1.0" encoding="utf-8"?>
<!-- Uploaded to SVGRepo https://www.svgrepo.com -->
<svg version="1.1" id="Layer_1" xmlns="http://www.w3.org/2000/svg" xmlns:xlink="http://www.w3.org/1999/xlink" x="0px" y="0px"
	 width="208px" height="256px" viewBox="0 0 208 256" enable-background="new 0 0 208 256" xml:space="preserve">
<path d="M59.911,105.859c-4.269-1.028-6.943-5.4-5.863-9.669c1.029-4.269,5.4-6.943,9.669-5.863c4.269,1.029,6.943,5.4,5.863,9.669
	C68.552,104.265,64.18,106.939,59.911,105.859z M97.455,81.275c4.269,1.029,8.64-1.594,9.669-5.914
	c1.08-4.269-1.594-8.641-5.863-9.669c-4.269-1.08-8.64,1.594-9.669,5.863C90.512,75.824,93.187,80.195,97.455,81.275z
	 M101.827,121.648c-4.269-1.08-8.64,1.594-9.669,5.863c-1.08,4.269,1.594,8.64,5.863,9.669c4.269,1.08,8.64-1.594,9.669-5.863
	C108.719,126.997,106.096,122.677,101.827,121.648z M78.838,110.179c-4.269-1.08-8.64,1.594-9.669,5.863
	c-1.08,4.269,1.594,8.641,5.863,9.669c4.269,1.08,8.64-1.594,9.669-5.863C85.729,115.58,83.158,111.208,78.838,110.179z M35.8,2
	H205.82v194.654v0.202c-13.226,0-23.928,10.702-23.928,23.928s10.702,23.928,23.928,23.928V254H34.084v-0.101
	C16.416,253.192,2,238.87,2,221c0-1.514,0-186,0-186C2,16.726,17.526,2,35.8,2z M183.204,196.654l-149.726,0.303
	c-12.317,0.909-22.111,11.207-22.111,23.726c0,13.226,10.803,24.029,24.029,23.928h147.505c-6.26-6.058-10.298-14.539-10.298-23.928
	C172.603,211.192,176.743,202.712,183.204,196.654z M91.901,147.723c41.504,12.652,55.185-1.903,57.088-11.314
	c1.749-8.949-17.641-15.326-14.298-24.789c3.034-8.64,22.372,8.486,29.264,2.108c2.314-2.108,9.669-10.852-0.771-25.304
	c0,0-23.349-30.19-57.088-36.67c-42.944-8.332-60.328,19.492-62.951,38.47C38.516,123.5,75.135,142.581,91.901,147.723z
	 M72.717,84.773c4.269,1.08,8.64-1.594,9.669-5.863c1.08-4.269-1.594-8.64-5.863-9.669c-4.269-1.08-8.64,1.594-9.669,5.863
	C65.774,79.373,68.449,83.744,72.717,84.773z"/>
</svg>
