<svg xmlns="http://www.w3.org/2000/svg" viewBox="0 0 64 64"><path d="M58,28H57V17h1a1,1,0,0,0,0-2H52.58A7.49,7.49,0,0,0,47.5,2H10a1,1,0,0,0,0,2h1V15H10a1,1,0,0,0,0,2h5.42a7.46,7.46,0,0,0,0,11H3a1,1,0,0,0,0,2H4V41H3a1,1,0,0,0,0,2h8.41l-.22.2A7.5,7.5,0,0,0,16.5,56H17v5a1,1,0,0,0,.62.92,1,1,0,0,0,1.09-.21L22,58.41l3.29,3.3A1,1,0,0,0,26,62a.84.84,0,0,0,.38-.08A1,1,0,0,0,27,61V56H54a1,1,0,0,0,0-2H53V43h1a1,1,0,0,0,0-2H45.58a7.46,7.46,0,0,0,0-11H58a1,1,0,0,0,0-2ZM51,43V54H27V50a1,1,0,0,0-1-1H18a1,1,0,0,0-1,1v4h-.5a5.5,5.5,0,1,1,0-11H51Zm4-15H20.5a5.5,5.5,0,0,1,0-11H55Z"/></svg>