<?xml version="1.0" encoding="utf-8"?>
<!-- Generator: Adobe Illustrator 26.3.1, SVG Export Plug-In . SVG Version: 6.00 Build 0)  -->
<svg version="1.1" id="Layer_1" xmlns="http://www.w3.org/2000/svg" xmlns:xlink="http://www.w3.org/1999/xlink" x="0px" y="0px"
	 viewBox="0 0 58 57.9" style="enable-background:new 0 0 58 57.9;" xml:space="preserve">
<g>
	<path d="M24,6h10c1.1,0,2-0.9,2-2V2c0-1.1-0.9-2-2-2H24c-1.1,0-2,0.9-2,2v2C22,5.1,22.9,6,24,6z M30,15c0,2.2,1.8,4,4,4s4-1.8,4-4
		C37.9,9.7,30.1,9.7,30,15z M55,38H3c-1.7,0-3,1.3-3,3s1.3,3,3,3h6.4c-1.7,3-3.4,5.9-5.1,8.9c-0.6,1-0.2,2.2,0.7,2.7c0,0,0,0,0,0
		l3.5,2c1,0.5,2.2,0.2,2.7-0.7c0,0,0,0,0,0l7-12.1l0.4-0.7H25v11.7c0,1.1,0.9,2,2,2h4c1.1,0,2-0.9,2-2V44h6.4
		c1.3,2.3,6.3,10.9,7.4,12.9c0.5,1,1.8,1.3,2.7,0.7c0,0,0,0,0,0l3.5-2c1-0.6,1.3-1.8,0.7-2.7c0,0,0,0,0,0L48.6,44H55
		c1.7,0,3-1.3,3-3S56.7,38,55,38L55,38z"/>
	<path d="M55,37c0.3,0,0.7,0,1,0.1V5c0-1.1-0.9-2-2-2H37c0.1,0.7,0,1.3-0.2,2H54v26.8c-2.9-3.1-7.4-8-9-9.7
		c-0.6-0.6-1.6-0.8-2.3-0.5L36,24.9L42.7,35h-0.4l-9.5-8.6L20.2,16c-0.7-0.6-1.7-0.6-2.4-0.1L4,25.6V5h17.2C21,4.3,20.9,3.7,21,3H4
		C2.9,3,2,3.9,2,5v32.1C2.3,37,2.7,37,3,37H55z"/>
</g>
</svg>
