<?xml version="1.0" encoding="utf-8"?>
<!-- Generator: Adobe Illustrator 26.4.1, SVG Export Plug-In . SVG Version: 6.00 Build 0)  -->
<svg version="1.1" id="Layer_1" xmlns="http://www.w3.org/2000/svg" xmlns:xlink="http://www.w3.org/1999/xlink" x="0px" y="0px"
	 viewBox="0 0 28 18" style="enable-background:new 0 0 28 18;" xml:space="preserve">
<path d="M27.7,8.7l-9.5-7.7c-0.3-0.2-0.7-0.3-1-0.1c-0.3,0.1-0.5,0.5-0.5,0.8v3c-1.7,0.6-3.4,1-5.1,1c-5.9,0-9.4-4.2-9.8-5
	C1.6,0.1,1.1-0.1,0.6,0C0.2,0.2-0.1,0.6,0,1.1l0,0.1c0.8,4,3.8,13.2,14.5,13.2c0.7,0,1.4,0,2.1-0.1v2.8c0,0.4,0.2,0.7,0.5,0.8
	c0.1,0.1,0.3,0.1,0.4,0.1c0.2,0,0.4-0.1,0.6-0.2l9.5-7.7C27.9,9.9,28,9.6,28,9.4S27.9,8.8,27.7,8.7z"/>
</svg>
