<svg xmlns="http://www.w3.org/2000/svg" viewBox="0 0 64 64"><g data-name="Glyph"><circle cx="32" cy="57" r="1"/><path d="M42.63 45.38a23 23 0 1 0-21.26 0C8.51 46.34 2 49.07 2 53.5 2 60.53 18.31 62 32 62s30-1.47 30-8.5c0-4.43-6.51-7.16-19.37-8.12ZM15 25a17 17 0 1 1 17 17 17.024 17.024 0 0 1-17-17Zm17 35c-17.27 0-28-2.49-28-6.5 0-3.28 7.17-5.55 19.67-6.27l1.94 1.95C19.33 49.53 11 50.56 11 53.5c0 3.33 10.62 4.2 16.95 4.43h.03a1 1 0 0 0 .04-2c-9.57-.34-14.02-1.72-14.91-2.43.88-.7 5.19-2.04 14.41-2.41l2.51 2.51a2.921 2.921 0 0 0 1.95.73 3.075 3.075 0 0 0 2.04-.77l2.46-2.47c9.22.37 13.53 1.71 14.41 2.41-.89.71-5.33 2.09-14.91 2.43a1 1 0 0 0 .04 2h.03C42.38 57.7 53 56.83 53 53.5c0-2.94-8.33-3.97-14.61-4.32l1.94-1.95C52.83 47.95 60 50.22 60 53.5c0 4.01-10.73 6.5-28 6.5Z"/><path d="M41 32.93a1 1 0 0 0 .5-.87v-6.49l-9.13 3.51a1.11 1.11 0 0 1-.72 0l-9.15-3.52v6.5a1 1 0 0 0 .5.87 17.051 17.051 0 0 0 18 0Z"/><path d="M32.369 26.932 44 22.45V28a1 1 0 0 0 2 0v-7a1.078 1.078 0 0 0-.65-.93l-13-5a.994.994 0 0 0-.72 0l-13.02 5.01a1.006 1.006 0 0 0 .04 1.85l13 5a1 1 0 0 0 .719.002Z"/></g></svg>