<?xml version="1.0" encoding="utf-8"?>
<!-- Generator: Adobe Illustrator 26.3.1, SVG Export Plug-In . SVG Version: 6.00 Build 0)  -->
<svg version="1.1" id="Layer_1" xmlns="http://www.w3.org/2000/svg" xmlns:xlink="http://www.w3.org/1999/xlink" x="0px" y="0px"
	 width="auto" height="1.25rem" viewBox="0 0 56 55.3" style="enable-background:new 0 0 56 55.3;" xml:space="preserve">
<g>
	<polygon points="39,50.7 40.4,48 37.6,48 	"/>
	<path d="M28,16c-0.1,0-0.1,0-0.2,0L10,12.3V25c0,2.8,7.4,6,18,6s18-3.2,18-6V12.3l-17.8,3.7C28.1,16,28.1,16,28,16z M12,32h4v2h-4
		v5h2v2h-2v5h4v2h-4v4h7V32.1c-2.4-0.4-4.8-1.2-7-2.2V32z"/>
	<polygon points="28,0 0,7.7 0,8.1 28,13.9 52,9 52,8 54,8 54,8.6 56,8.1 56,7.7 	"/>
	<path d="M37,46h4V31.1c-1.3,0.4-2.6,0.8-4,1V46z M38,33h2v11h-2V33z M26,49.5l0.3-0.3c0.4-0.4,1-0.4,1.4,0l0.3,0.3l0.3-0.3
		c0.4-0.4,1-0.4,1.4,0l0.3,0.3V40h-4V49.5z M26,32.9v2h4v-2c-0.7,0-1.3,0-2,0S26.7,33,26,32.9z"/>
	<rect x="26" y="37" width="4" height="1"/>
	<path d="M28.7,51.7c-0.4,0.4-1,0.4-1.4,0L27,51.4l-1,1v0.3l2,2.7l2-2.7v-0.3l-1-1L28.7,51.7z M54,16.1V11h-2v5.1
		c0.3-0.1,0.7-0.1,1-0.1C53.3,16,53.7,16,54,16.1z M53,17c-1.1,0-2,0.9-2,2v4h4v-4C55,17.9,54.1,17,53,17z"/>
</g>
</svg>
