<svg xmlns="http://www.w3.org/2000/svg" viewBox="0 0 64 64"><g data-name="graduation cap-pen-pencil-education"><polygon points="43 54.76 44.38 52 41.62 52 43 54.76"/><path d="M32 20a1.231 1.231 0 0 1-.2-.02L14 16.3V29c0 2.84 7.39 6 18 6s18-3.16 18-6V16.3L32.2 19.98A1.231 1.231 0 0 1 32 20zM16 36h4v2H16v5h2v2H16v5h4v2H16v4h7V36.18a26.539 26.539 0 0 1-7-2.25z"/><polygon points="32 4.04 4 11.76 4 12.19 32 17.98 56 13.01 56 12 58 12 58 12.6 60 12.19 60 11.76 32 4.04"/><path d="M41 50h4V35.16a31.117 31.117 0 0 1-4 1.02zm1-13h2V48H42zM30 53.59l.29-.3a1.008 1.008 0 0 1 1.42 0l.29.3.29-.3a1.008 1.008 0 0 1 1.42 0l.29.3V44H30zM30 36.96V39h4V36.96c-.67.03-1.33.04-2 .04S30.67 36.99 30 36.96z"/><rect width="4" height="1" x="30" y="41"/><path d="M32.71 55.71a1.008 1.008 0 0 1-1.42 0l-.29-.3-1 1v.26l2 2.66 2-2.66v-.26l-1-1zM58 20.13V15H56v5.13A3.657 3.657 0 0 1 57 20 3.708 3.708 0 0 1 58 20.13zM57 21a2.006 2.006 0 0 0-2 2v4h4V23a2.015 2.015 0 0 0-2-2z"/></g></svg>