<svg xmlns="http://www.w3.org/2000/svg" xmlns:svgjs="http://svgjs.com/svgjs" xmlns:xlink="http://www.w3.org/1999/xlink" width="288" height="288"><svg xmlns="http://www.w3.org/2000/svg" width="288" height="288" data-name="Layer 1" viewBox="0 0 32 32"><ellipse cx="17.389" cy="11.052" fill="#fff" class="colorbc9a7e svgShape" rx="1.176" ry="5.173" transform="rotate(-13.807 17.388 11.051)"/><path fill="#fff" d="M15.424.768a5.452,5.452,0,0,0-1.241,2.379A3.39,3.39,0,0,0,15.556,6.66L16.8,6.355c.1-.025.252-.342.3-.422a2.109,2.109,0,0,0-.5-2.8,9.788,9.788,0,0,1-.933-.648A1.318,1.318,0,0,1,15.424.768Z" class="colorf8a839 svgShape"/><path fill="#fff" d="M24.04,14.557a1.243,1.243,0,0,1-.33.04,1.352,1.352,0,0,1-1.31-1.02l-.16-.65,2.61-.67.17.66A1.341,1.341,0,0,1,24.04,14.557Z" class="colorfbea9a svgShape"/><polygon fill="#fff" points="24.85 12.257 22.24 12.927 20.01 4.127 19.75 3.107 20.57 .807 22.37 2.437 22.63 3.477 24.85 12.257" class="colored4569 svgShape"/><path fill="#fff" d="M13.02,21.447l-.98.16a1.988,1.988,0,0,1-2.3-1.64L7.68,7.637l-.16-.99-.33-1.97-.17-.99L6.94,3.2A2,2,0,0,1,8.59.9l.98-.16a1.988,1.988,0,0,1,2.3,1.64l2.8,16.77A2,2,0,0,1,13.02,21.447Z" class="colore0e0e2 svgShape"/><path fill="#fff" d="M9.57 3.777a.491.491 0 0 1-.41.57l-1.97.33-.17-.99L9 3.367A.489.489 0 0 1 9.57 3.777zM9.08 6.9a.514.514 0 0 1-.41.58l-.99.16-.16-.99.98-.16A.506.506 0 0 1 9.08 6.9z" class="color575854 svgShape"/><line x1="10.065" x2="8.092" y1="9.775" y2="10.104" fill="#fbea9a"/><polygon fill="#fff" points="22.63 3.477 22.61 3.507 20.07 4.147 20.01 4.127 19.75 3.107 20.57 .807 22.37 2.437 22.63 3.477" class="colorfbea9a svgShape"/><path d="M5.835,9.592a10.388,10.388,0,0,0-.21,2.1c0,.18.01.36.02.54a7.494,7.494,0,0,1-.39,2.74l-.95,2.91a1,1,0,0,0,.95,1.31h2.12v2.75a4,4,0,0,0,4,4h2.57a1.907,1.907,0,0,1,.68.12,1.987,1.987,0,0,1,1.3,1.57l.19,1.21.07.49.27,1.72a.619.619,0,0,0,.08.24h11.21c-.51-1.03-1.01-2.07-1.52-3.11-.36-.91-.92-2.3-1.48-3.7a9.136,9.136,0,0,1,.61-7.78,10.481,10.481,0,0,0,1.06-7.11Z" class="colorfcc37a svgShape"/><path d="M28.193,31.072c-.295-.6-.586-1.193-.878-1.793L26.689,28c-.23-.583-.543-1.364-.886-2.218L25.209,24.3a8.665,8.665,0,0,1,.584-7.354A10.95,10.95,0,0,0,26.905,9.5a.5.5,0,0,0-.49-.4H24.569L22.854,2.321a.5.5,0,0,0-.148-.248l-1.8-1.63a.494.494,0,0,0-.457-.114.5.5,0,0,0-.35.316l-.82,2.29a.5.5,0,0,0-.014.291l1.482,5.867H18.569a12.267,12.267,0,0,0-1.177-2.666c.045-.076.088-.157.128-.24A2.593,2.593,0,0,0,16.9,2.737a4.8,4.8,0,0,0-.433-.286A2.67,2.67,0,0,1,16,2.121c-.268-.255-.423-.778-.219-1.007l0,0a.5.5,0,0,0-.739-.673l0,0-.007.007a6.171,6.171,0,0,0-1.351,2.59,3.885,3.885,0,0,0,1.538,4,10.443,10.443,0,0,0,.1,2.056H13.5l-1.14-6.8A2.5,2.5,0,0,0,9.489.24L8.5.4A2.523,2.523,0,0,0,6.447,3.286l.659,3.939v.005l.312,1.863H5.835a.5.5,0,0,0-.49.4,11.008,11.008,0,0,0-.22,2.2c0,.189.01.378.021.567a6.952,6.952,0,0,1-.366,2.558L3.83,17.728a1.5,1.5,0,0,0,.212,1.345,1.483,1.483,0,0,0,1.213.621h1.62v2.25a4.5,4.5,0,0,0,4.5,4.5h2.57a1.414,1.414,0,0,1,.511.091,1.483,1.483,0,0,1,.975,1.177l.527,3.4a1.107,1.107,0,0,0,.144.434.5.5,0,0,0,.434.251h11.21a.5.5,0,0,0,.448-.722ZM20.272,3.129l.517-1.443,1.134,1.026.107.424-1.65.418Zm.353,1.4,1.651-.418,1.262,4.987H21.779ZM17.519,9.093H16.331a9.491,9.491,0,0,1-.1-2.082l.3-.074A10.281,10.281,0,0,1,17.519,9.093ZM14.666,3.259a4.945,4.945,0,0,1,.3-.867,1.936,1.936,0,0,0,.349.451,3.493,3.493,0,0,0,.638.461,3.815,3.815,0,0,1,.342.224,1.624,1.624,0,0,1,.337,2.208c-.042.085-.07.136-.091.172l-.86.208h0A2.843,2.843,0,0,1,14.666,3.259Zm-6-1.872.98-.161a1.5,1.5,0,0,1,1.726,1.229l1.112,6.637H8.433L8.175,7.556l.492-.082A.5.5,0,1,0,8.5,6.488L8.01,6.57,7.68,4.6l1.481-.247A.5.5,0,0,0,9,3.364l-1.482.247-.082-.489A1.518,1.518,0,0,1,8.671,1.387ZM16.92,30.793l-.5-3.234A2.475,2.475,0,0,0,14.8,25.6a2.394,2.394,0,0,0-.857-.153h-2.57a3.5,3.5,0,0,1-3.5-3.5v-2.75a.5.5,0,0,0-.5-.5H5.255a.5.5,0,0,1-.475-.655l.949-2.909a7.935,7.935,0,0,0,.414-2.924c-.009-.17-.019-.342-.019-.513a10.079,10.079,0,0,1,.127-1.6H26a9.926,9.926,0,0,1-1.081,6.372,9.658,9.658,0,0,0-.634,8.2l.595,1.485c.342.852.653,1.631.9,2.25l.641,1.313q.264.539.525,1.077Z" class="color000 svgShape"/></svg></svg>