<svg xmlns="http://www.w3.org/2000/svg" enable-background="new 0 0 512 512" viewBox="0 0 512 512"><path d="M337.008,59.102c-0.24,4.48-4,7.839-8.319,7.679c-27.518-1.28-47.037,10.479-57.916,34.878c-0.32,0.72-0.64,1.76-0.96,2.559c-4.8,2.56-9.439,5.92-13.839,9.999c-3.04-2.8-6.159-5.199-9.439-7.439c-9.439-6.079-19.678-9.279-30.238-9.279c-6.4,0-12.559,1.28-18.479,3.52c-0.08,0-0.08-0.08-0.16-0.08c-5.359,2.08-10.559,5.04-15.439,8.72c-0.8-0.56-1.6-1.12-2.4-1.76c-29.678-25.278-31.678-70.315-31.758-72.234c-0.08-2.88,1.36-5.6,3.92-7.12c2.48-1.52,5.6-1.52,8.079-0.08c14.239,8.24,22.319,9.439,31.758,10.799c9.599,1.44,20.398,2.96,37.597,11.839c17.119,8.799,25.598,24.238,29.758,38.317c14.159-26.238,38.717-40.077,70.155-38.637C333.808,50.943,337.168,54.703,337.008,59.102z"/><path d="M239.239 122.757c2.419 2.418 5.247 4.165 8.255 5.317v-3.671c0-2.232.194-4.386.314-6.571-7.58-8.048-19.19-16.733-34.198-16.733-34.388 0-62.363 45.067-62.363 100.463 0 55.363 27.976 100.4 62.363 100.4 16.212 0 28.529-10.154 36.004-18.676 1.617-1.845 3.954-2.904 6.412-2.904.009 0 .017 0 .021 0 2.466.009 4.808 1.08 6.421 2.938 7.383 8.504 19.608 18.641 35.912 18.641 34.388 0 62.363-45.038 62.363-100.4 0-55.396-27.976-100.463-62.363-100.463-14.651 0-25.967 8.172-33.477 16-.174 2.409-.343 4.819-.343 7.304v3.649c2.983-1.152 5.786-2.895 8.192-5.295 3.334-3.334 8.733-3.334 12.067 0 3.334 3.334 3.334 8.738 0 12.067-7.946 7.946-18.383 11.917-28.821 11.917-10.441 0-20.88-3.97-28.825-11.917-3.334-3.329-3.334-8.733 0-12.067C230.498 119.423 235.907 119.423 239.239 122.757zM201.552 149.223c-8.463 13.112-13.313 32.191-13.313 52.338 0 20.792 4.9 35.645 9.013 44.446 1.996 4.271.155 9.346-4.117 11.342-1.167.546-2.396.804-3.609.804-3.209 0-6.283-1.821-7.733-4.921-4.846-10.367-10.621-27.742-10.621-51.671 0-23.342 5.846-45.791 16.038-61.588 2.558-3.954 7.837-5.096 11.796-2.546C202.969 139.982 204.106 145.266 201.552 149.223zM96.243 380h377.02c1.423-8.119 3.359-16.23 5.968-24.321H87.709c-15.375 0-30.029 6.617-40.205 18.154-10.321 11.7-14.916 26.784-12.942 42.475 3.325 26.542 27.054 46.55 55.196 46.55h389.473c-2.609-8.091-4.545-16.202-5.968-24.321H98.289c-4.713 0-8.533-3.821-8.533-8.533s3.821-8.533 8.533-8.533H471.11c-.594-8.134-.594-16.27 0-24.404H96.243c-4.713 0-8.533-3.821-8.533-8.533C87.709 383.821 91.531 380 96.243 380z"/><path d="M503.466,479.925H89.76c-36.729,0-67.738-26.433-72.129-61.488c-2.558-20.316,3.666-40.692,17.075-55.892c13.417-15.213,32.733-23.934,53.005-23.934h415.756c2.234,0,4.359-0.9,5.992-2.534c1.642-1.642,2.542-3.767,2.542-6c0-4.709-3.83-8.537-8.533-8.537H87.709c-23.392,0-45.438,9.121-62.075,25.679c-17.925,18-27.2,42.962-25.416,68.45c3.212,45.6,42.955,81.322,90.48,81.322h412.768c2.234,0,4.363-0.9,5.996-2.534c1.637-1.637,2.538-3.767,2.538-6C511.999,483.754,508.17,479.925,503.466,479.925z"/></svg>