<?xml version="1.0" encoding="utf-8"?>
<!-- Generator: Adobe Illustrator 26.3.1, SVG Export Plug-In . SVG Version: 6.00 Build 0)  -->
<svg version="1.1" id="Layer_1" xmlns="http://www.w3.org/2000/svg" xmlns:xlink="http://www.w3.org/1999/xlink" x="0px" y="0px"
	 viewBox="0 0 376 444" style="enable-background:new 0 0 376 444;" xml:space="preserve">
<rect x="93" y="46" width="191" height="62.8"/>
<ellipse cx="215.2" cy="219.1" rx="19.4" ry="18.2"/>
<path d="M224,29.9C224,13.4,210.7,0,194.2,0c-0.1,0-0.2,0-0.3,0h-11.3C166,0,152,13.3,152,29.9V32h72V29.9z M194.6,302.8l-43.5-36.3
	c-8.5-6.9-20.6-7.4-29.7-1.2c0,0-0.1,0-0.1,0.1L54,309.8V390h268V261l-84,45.7C224.1,314.6,206.8,313,194.6,302.8z"/>
<path d="M79,108H54v185l59.5-39.3c14.3-9.7,33.2-8.9,46.6,2l43.5,36.3c7.8,6.5,18.9,7.5,27.7,2.5l90.7-49.4V108h-24v7.8
	c-0.1,1.9-0.9,3.7-2.2,4.9c-1.4,1.3-3.2,2.1-5.1,2.1H86c-3.9,0-7-3.1-7-7c0,0,0,0,0,0L79,108z M215.2,186.9
	c18.4,0,33.4,14.5,33.4,32.2s-15,32.2-33.4,32.2s-33.4-14.5-33.4-32.2S196.8,186.9,215.2,186.9z"/>
<path d="M298,94h30.9c4,0.1,7.1,3.4,7.1,7.3v296c-0.1,3.8-3.2,6.8-7,6.7c0,0-0.1,0-0.1,0H47.1c-3.8,0.1-7-2.8-7.1-6.6
	c0,0,0-0.1,0-0.1v-296c0-4,3.2-7.2,7.1-7.3H79V71H0v373h376V71h-78V94z"/>
</svg>
