<?xml version="1.0" encoding="utf-8"?>
<!-- Generator: Adobe Illustrator 26.3.1, SVG Export Plug-In . SVG Version: 6.00 Build 0)  -->
<svg version="1.1" id="Layer_1" xmlns="http://www.w3.org/2000/svg" xmlns:xlink="http://www.w3.org/1999/xlink" x="0px" y="0px"
	 viewBox="0 0 41 44" style="enable-background:new 0 0 41 44;" xml:space="preserve">
<path d="M31,31h2v10c0,1.7-1.3,3-3,3H6c-1.7,0-3-1.3-3-3v-2h2v2c0,0.6,0.4,1,1,1h24c0.6,0,1-0.4,1-1V31z M36,20h-7v-7
	c0-0.6-0.4-1-1-1c-5,0-9,4-9,9s4,9,9,9s9-4,9-9C37,20.4,36.6,20,36,20z M32,8c-0.6,0-1,0.4-1,1v8c0,0.6,0.4,1,1,1h8c0.6,0,1-0.4,1-1
	C41,12,37,8,32,8z M29,9V5c0-0.6-0.4-1-1-1H11c-0.6,0-1,0.4-1,1v4c0,0.6,0.4,1,1,1h17C28.6,10,29,9.6,29,9z M10,37c0,0.6,0.4,1,1,1
	h17c0.6,0,1-0.4,1-1v-4c0-0.6-0.4-1-1-1H11c-0.6,0-1,0.4-1,1V37z M10,14h8v-2h-8V14z M18,16h-8v2h8V16z M10,22h8v-2h-8V22z M10,26h8
	v-2h-8V26z M10,30h8v-2h-8V30z M8,7c0-0.6-0.4-1-1-1H5V3c0-0.6,0.4-1,1-1h24c0.6,0,1,0.4,1,1v4h2V3c0-1.7-1.3-3-3-3H6
	C4.3,0,3,1.3,3,3v3H1C0.4,6,0,6.4,0,7v4h8V7z M4,37c0.3,0,0.6-0.1,0.8-0.4l3-4C7.9,32.4,8,32.2,8,32V13H0v19c0,0.2,0.1,0.4,0.2,0.6
	l3,4C3.4,36.9,3.7,37,4,37z"/>
</svg>
